<svg viewBox="0 0 307 57" fill="none" xmlns="http://www.w3.org/2000/svg">
  <path d="M18.5037 14.1968C8.85306 14.1968 1.75466 19.062 0.957088 25.6819C0.87733 26.3199 1.43563 26.7187 2.2332 26.7985L11.0863 27.9151C11.8838 27.9948 12.3624 27.6758 12.6814 26.8782C13.3992 24.964 15.5527 23.8474 18.743 23.8474C22.9701 23.8474 25.1236 26.0009 25.1236 29.4304V31.1054C25.1236 31.4244 24.8843 31.5839 24.645 31.5839H16.5895C5.82228 31.5839 0 36.4491 0 44.5046C0 52.7196 5.82228 56.4682 13.6385 56.4682C18.4239 56.4682 22.0928 55.1123 24.5653 52.4006C24.8843 52.0815 25.1236 52.1613 25.1236 52.5601V54.4742C25.1236 55.3516 25.6021 55.8301 26.4794 55.8301H35.0135C35.8908 55.8301 36.3693 55.3516 36.3693 54.4742V27.8353C36.3693 20.0988 29.0317 14.1968 18.5037 14.1968ZM16.9086 48.0937C13.5587 48.0937 11.2458 46.339 11.2458 43.4677C11.2458 40.1179 14.1968 38.2835 18.9822 38.2835H24.645C24.964 38.2835 25.1236 38.5228 25.1236 38.7621V41.5536C25.1236 45.4617 21.375 48.0937 16.9086 48.0937Z" fill="#EFEFEF"/>
  <path d="M64.629 14.2766C60.7209 14.2766 57.9294 16.111 56.0152 18.9025C55.6962 19.2215 55.4569 19.062 55.4569 18.6632V16.1907C55.4569 15.3134 54.9783 14.8349 54.101 14.8349H45.567C44.6896 14.8349 44.2111 15.3134 44.2111 16.1907V54.4742C44.2111 55.3516 44.6896 55.8301 45.567 55.8301H54.101C54.9783 55.8301 55.4569 55.3516 55.4569 54.4742V33.0993C55.4569 28.7924 58.7269 26.3199 62.316 26.0009C63.9112 25.7616 65.4265 25.8414 66.4634 26.1604C67.4205 26.3199 67.899 26.2402 68.0585 25.2831L69.5739 16.9086C69.7334 16.1907 69.5739 15.5527 68.8561 15.2337C67.899 14.6753 66.5431 14.2766 64.629 14.2766Z" fill="#EFEFEF"/>
  <path d="M98.7389 22.4916V16.1907C98.7389 15.3134 98.2604 14.8349 97.383 14.8349H90.2049C89.8859 14.8349 89.7263 14.6753 89.7263 14.3563V5.34374C89.7263 4.46641 89.2478 3.98787 88.3705 3.98787H80.2352C79.3579 3.98787 78.8793 4.46641 78.8793 5.34374V14.3563C78.8793 14.6753 78.7198 14.8349 78.4008 14.8349H74.3332C73.4559 14.8349 72.9773 15.3134 72.9773 16.1907V22.4916C72.9773 23.3689 73.4559 23.8474 74.3332 23.8474H78.4008C78.7198 23.8474 78.8793 24.007 78.8793 24.326V45.2224C78.9591 53.8362 83.9838 55.7504 92.1191 55.7504C93.5547 55.7504 94.9903 55.6706 96.5057 55.5908C97.383 55.5111 97.8616 54.9528 97.8616 54.1552V47.2961C97.8616 46.4188 97.383 45.9402 96.5057 45.9402H94.2725C91.0822 45.9402 89.7263 44.2653 89.7263 40.8357V24.326C89.7263 24.007 89.8859 23.8474 90.2049 23.8474H97.383C98.2604 23.8474 98.7389 23.3689 98.7389 22.4916Z" fill="#EFEFEF"/>
  <path d="M124.744 46.9771C120.277 46.9771 117.007 45.1426 115.89 41.8726C115.651 41.2345 115.492 40.437 115.332 39.4001C115.332 39.0811 115.492 38.9216 115.811 38.9216H140.296C141.174 38.9216 141.652 38.443 141.652 37.5657C141.572 35.492 141.413 33.4981 141.174 31.7434C139.419 20.9762 133.597 14.117 122.829 14.117C113.897 14.117 107.117 19.381 104.964 27.1972C104.326 29.5102 104.086 31.9827 104.086 35.0135C104.086 37.6455 104.405 40.1179 105.043 42.4309C107.197 50.8852 113.657 56.4682 123.707 56.4682C130.247 56.4682 135.989 53.7564 139.419 49.4495C139.897 48.7317 139.897 48.1734 139.259 47.5354L134.713 43.1487C134.075 42.5107 133.437 42.5904 132.799 43.3082C131.044 45.4617 128.333 46.8175 124.744 46.9771ZM122.67 23.8474C126.339 23.8474 128.652 25.8414 129.609 28.8721C129.768 29.3507 129.848 29.8292 129.928 30.5471C130.008 30.8661 129.848 31.0256 129.529 31.0256H115.97C115.651 31.0256 115.492 30.8661 115.571 30.5471C115.651 29.7495 115.89 29.1114 116.05 28.5531C116.927 25.6819 119.161 23.8474 122.67 23.8474Z" fill="#EFEFEF"/>
  <path d="M153.606 13.2397V15.0741C153.606 15.3134 153.446 15.4729 153.207 15.4729H148.182C147.544 15.4729 147.145 15.8717 147.145 16.5098V19.6203C147.145 20.2584 147.544 20.6571 148.182 20.6571H153.207C153.446 20.6571 153.606 20.8167 153.606 21.0559V54.7933C153.606 55.4313 154.005 55.8301 154.643 55.8301H158.152C158.79 55.8301 159.189 55.4313 159.189 54.7933V21.0559C159.189 20.8167 159.348 20.6571 159.588 20.6571H168.201C168.839 20.6571 169.238 20.2584 169.238 19.6203V16.5098C169.238 15.8717 168.839 15.4729 168.201 15.4729H159.588C159.348 15.4729 159.189 15.3134 159.189 15.0741V13.5587C159.189 7.49719 160.704 4.94496 166.766 4.94496H168.361C168.999 4.94496 169.398 4.54617 169.398 3.90811V1.03685C169.398 0.398786 168.999 0 168.361 0H166.287C156.397 0 153.606 3.74859 153.606 13.2397ZM182.637 0C180.085 0 178.33 1.67491 178.33 4.06762C178.33 6.5401 180.085 8.21501 182.637 8.21501C185.19 8.21501 186.944 6.5401 186.944 4.06762C186.944 1.67491 185.19 0 182.637 0ZM180.883 55.8301H184.472C185.11 55.8301 185.509 55.4313 185.509 54.7933V16.5098C185.509 15.8717 185.11 15.4729 184.472 15.4729H180.883C180.245 15.4729 179.846 15.8717 179.846 16.5098V54.7933C179.846 55.4313 180.245 55.8301 180.883 55.8301Z" fill="#EFEFEF"/>
  <path d="M213.949 56.4682C221.765 56.4682 227.986 52.241 229.581 46.0997C229.741 45.5414 229.821 45.0629 229.9 44.7439C229.98 44.026 229.581 43.6273 228.943 43.5475L225.514 42.9892C224.876 42.9094 224.397 43.1487 224.317 43.8665L224.238 43.9463C224.238 44.026 224.238 44.1856 224.158 44.3451C223.281 48.4127 219.293 51.5232 213.949 51.5232C208.525 51.5232 204.857 48.3329 203.82 43.707C203.421 42.1119 203.102 39.4799 203.102 35.5718C203.102 31.9827 203.421 29.1912 203.82 27.5163C204.857 22.9701 208.525 19.7798 213.949 19.7798C219.452 19.7798 223.36 23.1296 224.238 27.0377C224.317 27.3568 224.397 27.6758 224.397 27.9948C224.557 28.7126 224.956 28.9519 225.594 28.8721L229.103 28.4734C229.741 28.3936 230.14 27.9948 230.06 27.277C229.98 26.7187 229.821 25.9211 229.581 25.1236C227.986 19.4608 222.004 14.8349 213.949 14.8349C206.213 14.8349 200.39 19.2215 198.476 25.7616C197.838 28.2341 197.439 31.1054 197.439 35.492C197.439 39.5596 197.678 42.6702 198.476 45.3819C200.47 52.0815 206.133 56.4682 213.949 56.4682Z" fill="#EFEFEF"/>
  <path d="M243.581 8.21501C246.134 8.21501 247.888 6.5401 247.888 4.06762C247.888 1.67491 246.134 0 243.581 0C241.029 0 239.274 1.67491 239.274 4.06762C239.274 6.5401 241.029 8.21501 243.581 8.21501ZM241.827 55.8301H245.416C246.054 55.8301 246.453 55.4313 246.453 54.7933V16.5098C246.453 15.8717 246.054 15.4729 245.416 15.4729H241.827C241.189 15.4729 240.79 15.8717 240.79 16.5098V54.7933C240.79 55.4313 241.189 55.8301 241.827 55.8301Z" fill="#EFEFEF"/>
  <path d="M273.659 14.8349C265.444 14.8349 259.542 18.8227 258.505 24.645C258.426 25.2033 258.824 25.4426 259.462 25.5223L263.37 26.0009C264.009 26.0806 264.407 25.8414 264.567 25.2033C265.444 21.8535 268.714 19.7798 273.739 19.7798C280.359 19.7798 283.071 23.3689 283.071 28.5531V31.5041C283.071 31.7434 282.911 31.9029 282.672 31.9029H273.42C263.051 31.9029 256.99 36.8479 256.99 44.8236C256.99 53.1981 263.37 56.4682 270.15 56.4682C275.175 56.4682 279.641 54.873 282.592 51.7625C282.831 51.4435 283.071 51.603 283.071 51.922V54.7933C283.071 55.4313 283.469 55.8301 284.107 55.8301H287.696C288.335 55.8301 288.733 55.4313 288.733 54.7933V28.2341C288.733 20.3381 283.39 14.8349 273.659 14.8349ZM271.426 51.603C266.561 51.603 262.653 49.3698 262.653 44.5046C262.653 39.3204 267.358 36.3693 274.297 36.3693H282.672C282.911 36.3693 283.071 36.5289 283.071 36.7681V42.9094C283.071 48.4924 277.328 51.603 271.426 51.603Z" fill="#EFEFEF"/>
  <path d="M301.474 55.8301H305.063C305.701 55.8301 306.1 55.4313 306.1 54.7933V1.03685C306.1 0.398786 305.701 0 305.063 0H301.474C300.836 0 300.437 0.398786 300.437 1.03685V54.7933C300.437 55.4313 300.836 55.8301 301.474 55.8301Z" fill="#EFEFEF"/>
</svg>
